<?xml version="1.0" encoding="UTF-8" standalone="no"?>
<!-- Created with Inkscape (http://www.inkscape.org/) -->

<svg
   width="150mm"
   height="150mm"
   viewBox="0 0 150 150"
   version="1.1"
   id="svg5"
   xml:space="preserve"
   xmlns="http://www.w3.org/2000/svg"
   xmlns:svg="http://www.w3.org/2000/svg"><defs
     id="defs2" /><g
     id="layer1"
     transform="translate(-36.126225,-12.56309)"><path
       style="fill:#eed09d;stroke-width:0.208662"
       d="m 66.92739,140.30767 c -3.749876,-0.6289 -6.856035,-1.74308 -10.356794,-3.71493 -7.912754,-4.45698 -15.169452,-12.85828 -18.21655,-21.08987 -1.549422,-4.18569 -2.239909,-8.29551 -2.227661,-13.25917 0.01353,-5.48461 0.539271,-7.780763 3.137607,-13.703443 2.544416,-5.79977 4.310255,-8.45541 8.308223,-12.4947 3.136239,-3.16865 5.529251,-5.17164 11.193534,-9.36919 11.180759,-8.28555 12.923701,-9.61588 14.074876,-10.74292 1.038015,-1.01624 1.507736,-1.76202 3.119135,-4.95232 3.971301,-7.86251 6.443902,-10.64247 11.863905,-13.33868 8.23586,-4.09698 17.888055,-4.04506 26.261305,0.14126 3.10985,1.55481 4.61732,2.7954 11.05882,9.10109 9.64465,9.44128 13.15392,12.34916 17.52784,14.52407 1.26241,0.62773 3.14036,1.38716 4.17324,1.68763 1.6686,0.48541 2.11059,0.53253 3.96458,0.42272 2.61275,-0.15475 3.79613,-0.43435 8.86812,-2.09531 4.73627,-1.55101 6.56455,-1.89157 9.24247,-1.72164 2.54883,0.16174 4.84783,0.77488 7.14543,1.90567 5.85445,2.88135 9.42903,9.69711 10.02107,19.1075 0.45669,7.25901 -3.06624,18.072693 -8.60884,26.424913 -3.19331,4.81205 -9.70299,11.89951 -14.25287,15.51793 -9.02853,7.18018 -19.45108,11.64314 -31.15848,13.34215 -6.50653,0.94425 -9.48638,0.99234 -28.31014,0.45693 -8.62394,-0.2453 -11.481777,0.0407 -20.549784,2.05665 -2.631314,0.58498 -5.727332,1.25365 -6.88004,1.48595 -2.686052,0.54132 -7.137222,0.68705 -9.398996,0.30771 z m 35.2023,-18.87337 c 1.27418,-0.61683 3.14658,-2.6524 4.4033,-4.78703 0.55173,-0.93717 1.80173,-3.46618 2.77777,-5.62002 1.95211,-4.30776 2.49108,-5.12881 3.8323,-5.83806 1.57628,-0.83357 2.72909,-0.68352 5.37078,0.69904 9.08689,4.75574 10.74052,5.39858 13.52544,5.25795 1.2742,-0.0644 1.66855,-0.1834 2.66072,-0.80331 2.03803,-1.27335 4.55761,-3.36558 7.15849,-5.94432 2.89185,-2.86723 4.68363,-5.18771 5.68086,-7.35713 0.60726,-1.321043 0.69312,-1.719013 0.68365,-3.168563 -0.0393,-6.02072 -3.23435,-16.00052 -6.12729,-19.13899 -2.31315,-2.50948 -6.8541,-3.56949 -14.32031,-3.34285 -9.57439,0.29064 -20.66994,2.75993 -29.603276,6.58815 -14.174591,6.07427 -23.698282,13.32004 -25.197052,19.170323 -0.295326,1.15276 -0.2952,1.46253 0.0013,3.32123 0.419356,2.62856 1.141524,5.34764 2.106257,7.9304 1.453756,3.89194 3.888673,8.2575 5.333954,9.56322 2.72552,2.46235 10.016393,4.10448 17.70824,3.98846 2.663887,-0.0402 3.145597,-0.10255 4.004837,-0.5185 z m -26.71004,-2.57812 c 1.230635,-0.40337 2.045163,-0.78121 2.045163,-0.9487 0,-0.15309 -0.417152,-1.00168 -0.927005,-1.88575 -2.460747,-4.26688 -4.289777,-9.01571 -5.181537,-13.45316 -0.271458,-1.35078 -0.585715,-2.54812 -0.698351,-2.66076 -0.259955,-0.25996 -3.31189,0.8275 -3.971651,1.41516 -0.967914,0.86214 -0.916766,1.15078 1.486876,8.39079 3.034977,9.14163 2.953669,8.93655 3.730857,9.41045 0.875232,0.53368 1.128702,0.51436 3.515648,-0.26803 z m 77.6404,-26.081153 c 2.0896,-0.73032 2.65295,-1.2551 2.65295,-2.47136 0,-0.65172 -3.20877,-10.5711 -4.84071,-14.96424 -0.42852,-1.15357 -1.11969,-1.71849 -2.10255,-1.71849 -0.56279,0 -3.48502,0.95503 -3.75824,1.22825 -0.10036,0.10036 0.22891,0.99678 0.74631,2.03178 2.32672,4.65429 3.73185,9.518 4.41986,15.29888 0.16194,1.36071 0.25525,1.54182 0.70505,1.36849 0.18923,-0.0729 1.16903,-0.42092 2.17733,-0.77331 z"
       id="path241" /><path
       style="fill:#af6d4c;stroke-width:0.208662"
       d="m 93.218782,121.81161 c -6.204253,-0.61731 -10.733638,-1.97847 -12.802167,-3.84727 -1.445282,-1.30572 -3.880199,-5.67128 -5.333954,-9.56322 -0.964733,-2.58276 -1.686902,-5.30184 -2.106258,-7.9304 -0.296531,-1.8587 -0.296657,-2.16847 -0.0013,-3.32123 1.280965,-5.000093 8.157844,-10.849973 19.339925,-16.451683 6.26469,-3.13832 11.559302,-5.13557 17.596732,-6.63788 7.02939,-1.74916 11.99264,-2.49069 17.86368,-2.66891 7.4662,-0.22664 12.00714,0.83337 14.3203,3.34285 2.89294,3.13847 6.08795,13.11827 6.12729,19.13899 0.009,1.44955 -0.0764,1.84752 -0.68365,3.168563 -0.99723,2.16942 -2.78902,4.4899 -5.68086,7.35713 -2.60088,2.57874 -5.12046,4.67097 -7.15848,5.94432 -0.99218,0.61991 -1.38653,0.73897 -2.66073,0.80331 -2.78492,0.14063 -4.43856,-0.50221 -13.52544,-5.25795 -2.64169,-1.38256 -3.7945,-1.53261 -5.37078,-0.69904 -1.34123,0.70925 -1.88019,1.5303 -3.8323,5.83806 -2.16281,4.77269 -3.40406,6.91803 -4.99264,8.62909 -1.84371,1.98587 -2.53241,2.24124 -6.193265,2.29646 -1.665543,0.0251 -3.873275,-0.0384 -4.906151,-0.14119 z m -21.31478,-2.6874 c -0.777188,-0.4739 -0.69588,-0.26882 -3.730857,-9.41045 -2.403642,-7.24001 -2.45479,-7.52865 -1.486876,-8.39079 0.659761,-0.58766 3.711696,-1.67512 3.971651,-1.41516 0.112636,0.11264 0.426893,1.30998 0.698351,2.66076 0.89176,4.43745 2.72079,9.18628 5.181537,13.45316 0.509853,0.88407 0.927005,1.73266 0.927005,1.88575 0,0.28324 -3.714057,1.61978 -4.49694,1.61828 -0.223637,-4.1e-4 -0.702379,-0.18112 -1.063871,-0.40155 z M 150.42575,93.498207 c -0.0621,-0.10049 -0.17374,-0.69375 -0.24808,-1.31836 -0.68801,-5.78088 -2.09314,-10.64459 -4.41986,-15.29888 -0.5174,-1.035 -0.84667,-1.93142 -0.74631,-2.03178 0.27322,-0.27322 3.19545,-1.22825 3.75824,-1.22825 0.98286,0 1.67403,0.56492 2.10255,1.71849 1.63194,4.39314 4.84071,14.31252 4.84071,14.96424 0,1.21626 -0.56335,1.74104 -2.65295,2.47136 -1.0083,0.35239 -1.9881,0.70038 -2.17733,0.77331 -0.18923,0.073 -0.39487,0.0504 -0.45697,-0.0502 z"
       id="path239" /></g></svg>
