<?xml version="1.0" encoding="UTF-8" standalone="no"?>
<!-- Created with Inkscape (http://www.inkscape.org/) -->

<svg
   width="150mm"
   height="150mm"
   viewBox="0 0 150 150"
   version="1.1"
   id="svg5"
   xml:space="preserve"
   xmlns="http://www.w3.org/2000/svg"
   xmlns:svg="http://www.w3.org/2000/svg"><defs
     id="defs2" /><g
     id="layer1"
     transform="translate(-36.126225,-12.56309)"><path
       style="fill:#edd09d;stroke-width:0.255203"
       d="m 79.056121,162.21281 c -4.141975,-0.67495 -8.030711,-2.57374 -11.297134,-5.51619 -2.74075,-2.4689 -4.362556,-5.08636 -5.306309,-8.56396 -0.63618,-2.34423 -0.762128,-9.34634 -0.268844,-14.94625 1.105972,-12.55529 -0.05575,-19.1641 -4.439458,-25.2552 -1.500147,-2.08444 -5.130533,-5.88424 -10.651156,-11.148205 -6.996473,-6.671199 -8.832618,-8.884545 -10.173805,-12.263824 -0.836615,-2.10795 -1.050227,-6.60366 -0.453996,-9.554862 0.89501,-4.430085 2.673444,-6.704557 8.248566,-10.549244 5.415484,-3.734595 6.366201,-4.969744 6.3766,-8.284306 0.007,-2.214195 -0.227641,-3.373488 -1.916011,-9.46864 -1.158353,-4.181747 -1.394089,-5.393962 -1.508702,-7.758181 -0.134452,-2.773451 -0.127385,-2.819976 0.692582,-4.560083 1.15066,-2.441896 4.448015,-5.87594 6.926537,-7.213672 2.344458,-1.265375 4.818856,-2.136988 7.651591,-2.695294 1.843054,-0.363248 3.338956,-0.428215 8.00898,-0.34783 14.898594,0.25645 15.610931,0.209972 20.224013,-1.319549 2.462227,-0.816379 7.498733,-3.352739 12.359115,-6.22399 4.99965,-2.953516 8.03888,-3.942003 12.23428,-3.979106 4.21125,-0.03724 6.99887,0.696895 11.61009,3.057591 5.03909,2.579746 6.83222,4.630352 10.10473,11.555686 3.42212,7.241972 5.38287,9.655674 9.6644,11.896962 2.40948,1.26131 5.38567,2.046653 11.94012,3.150697 6.66451,1.122582 8.56934,1.641404 11.48524,3.12825 9.6059,4.898149 13.56268,16.349135 10.98507,31.791019 -0.21213,1.270901 -1.06456,5.379284 -1.89427,9.129738 -1.84073,8.320414 -1.91003,8.684748 -2.36197,12.417359 -0.62812,5.187744 -0.35761,9.780024 0.80727,13.704524 0.34068,1.14774 1.86392,4.96266 3.38498,8.47762 1.52107,3.51495 3.07221,7.32987 3.447,8.47761 2.40512,7.36547 1.16943,13.54347 -3.73548,18.67613 -1.51179,1.58198 -2.37231,2.22857 -4.26578,3.20525 -3.46351,1.78654 -6.19625,2.33275 -11.61008,2.32058 -4.90817,-0.011 -7.36334,-0.31764 -18.35142,-2.29188 -9.99737,-1.79624 -12.22917,-2.04996 -16.57606,-1.88445 -5.02826,0.19146 -7.5862,0.97499 -22.62357,6.92982 -9.575331,3.79187 -14.016948,5.12618 -19.724654,5.92555 -3.193496,0.44725 -6.167008,0.44074 -8.992465,-0.0196 z m 40.826559,-34.81838 c 4.66082,-1.0877 8.33339,-2.70541 12.09423,-5.32731 7.22902,-5.03977 12.25815,-12.60239 14.39818,-21.65141 0.77282,-3.267877 1.06495,-9.279248 0.61973,-12.753076 -1.77776,-13.871254 -10.64441,-25.093806 -23.32917,-29.527825 -3.67994,-1.286341 -6.67563,-1.781755 -10.77399,-1.781755 -4.09835,0 -7.09405,0.495414 -10.77398,1.781755 -11.855693,4.144216 -20.246914,14.034055 -22.978403,27.082208 -0.556487,2.658302 -0.63279,10.905222 -0.123554,13.354199 1.643279,7.902744 4.619494,13.775234 9.655306,19.051254 5.59091,5.85761 12.434661,9.26895 20.849961,10.39287 1.97858,0.26425 8.15461,-0.10584 10.36169,-0.62091 z m -11.73492,-6.88752 C 99.294608,118.71763 92.245251,113.21255 88.409265,105.09246 84.957928,97.786599 84.463688,90.003248 86.98477,82.659385 c 1.400516,-4.079668 3.178041,-7.040654 6.162719,-10.265789 5.07234,-5.480995 11.112531,-8.399414 18.246101,-8.815911 19.3136,-1.127637 33.64701,18.483355 27.57815,37.732455 -2.84337,9.01849 -10.27836,16.2723 -19.16251,18.69552 -3.00446,0.81948 -8.8448,1.07052 -11.66147,0.50125 z m 0.37452,-18.54465 c 2.26272,-2.367209 4.22894,-4.304018 4.36938,-4.304018 0.14045,0 2.10667,1.936809 4.36939,4.304018 2.26272,2.36721 4.28618,4.30402 4.49659,4.30402 0.21041,0 1.38815,-1.05546 2.6172,-2.34548 l 2.23464,-2.34548 -4.2997,-4.51872 c -2.36483,-2.485298 -4.29969,-4.629876 -4.29969,-4.765732 0,-0.135855 1.80495,-2.123752 4.011,-4.417546 2.20606,-2.293795 4.12366,-4.383001 4.26135,-4.642676 0.20931,-0.394754 -0.10765,-0.854348 -1.93392,-2.804134 -1.20134,-1.282598 -2.30568,-2.331996 -2.4541,-2.331996 -0.14841,0 -2.06621,1.885706 -4.26178,4.190456 -2.19556,2.30475 -4.1995,4.310499 -4.4532,4.457219 -0.39541,0.228682 -1.07738,-0.373135 -4.77735,-4.215831 -3.6995,-3.842207 -4.38266,-4.445093 -4.78201,-4.220094 -0.25625,0.144377 -1.34367,1.206278 -2.41648,2.359781 -1.620306,1.742158 -1.908408,2.176817 -1.701479,2.567009 0.137009,0.258351 2.054059,2.346471 4.260109,4.640266 2.20606,2.293794 4.01101,4.288071 4.01101,4.431726 0,0.143653 -1.9305,2.280531 -4.29,4.74862 l -4.290007,4.487432 2.212917,2.36259 c 1.2171,1.29942 2.39048,2.36259 2.6075,2.36259 0.21703,0 2.24591,-1.93681 4.50863,-4.30402 z"
       id="path212" /><path
       style="fill:#af6d4c;stroke-width:0.255203"
       d="m 109.52099,128.01534 c -8.4153,-1.12392 -15.259051,-4.53526 -20.849961,-10.39287 -5.035812,-5.27602 -8.012027,-11.14851 -9.655306,-19.051254 -0.509236,-2.448977 -0.432933,-10.695897 0.123554,-13.354199 2.731489,-13.048153 11.12271,-22.937992 22.978403,-27.082208 3.67993,-1.286341 6.67563,-1.781755 10.77398,-1.781755 4.09836,0 7.09405,0.495414 10.77399,1.781755 9.39243,3.283171 16.8215,10.348911 20.7614,19.746047 3.45785,8.247384 3.71677,18.528166 0.67895,26.959964 -2.46292,6.83614 -7.26711,13.13957 -13.12909,17.2263 -5.55611,3.87349 -11.24475,5.76055 -17.96169,5.95832 -1.99119,0.0587 -4.01359,0.0541 -4.49423,-0.0101 z m 10.28824,-8.00968 c 14.88974,-4.06129 23.76864,-20.280455 19.50899,-35.637261 -4.53838,-16.361666 -21.49303,-25.090599 -36.57616,-18.830877 -5.969376,2.477384 -11.516564,7.774719 -14.378436,13.730817 -2.345292,4.881002 -3.361491,10.562711 -2.815812,15.743606 1.080261,10.256435 7.049646,19.025315 15.827648,23.250425 4.17218,2.00819 7.22732,2.63117 12.26524,2.50102 2.99011,-0.0773 4.23377,-0.23002 6.16853,-0.75773 z m -18.40308,-16.10197 -2.212917,-2.36259 4.290007,-4.487432 c 2.3595,-2.468089 4.29,-4.604967 4.29,-4.74862 0,-0.143655 -1.80495,-2.137932 -4.01101,-4.431726 -2.20605,-2.293795 -4.1231,-4.381915 -4.260109,-4.640266 -0.206929,-0.390192 0.08117,-0.824851 1.701479,-2.567009 1.07281,-1.153503 2.16023,-2.215404 2.41648,-2.359781 0.39935,-0.224999 1.08251,0.377887 4.78201,4.220094 3.69997,3.842696 4.38194,4.444513 4.77735,4.215831 0.2537,-0.14672 2.25764,-2.152469 4.4532,-4.457219 2.19557,-2.30475 4.11337,-4.190456 4.26178,-4.190456 0.14842,0 1.25276,1.049398 2.4541,2.331996 1.82627,1.949786 2.14323,2.40938 1.93392,2.804134 -0.13769,0.259675 -2.05529,2.348881 -4.26135,4.642676 -2.20605,2.293794 -4.011,4.281691 -4.011,4.417546 0,0.135856 1.93486,2.280434 4.29969,4.765732 l 4.2997,4.51872 -2.23464,2.34548 c -1.22905,1.29002 -2.40679,2.34548 -2.6172,2.34548 -0.21041,0 -2.23387,-1.93681 -4.49659,-4.30402 -2.26272,-2.367209 -4.22894,-4.304018 -4.36939,-4.304018 -0.14044,0 -2.10666,1.936809 -4.36938,4.304018 -2.26272,2.36721 -4.2916,4.30402 -4.50863,4.30402 -0.21702,0 -1.3904,-1.06317 -2.6075,-2.36259 z"
       id="path210" /></g></svg>
