<?xml version="1.0" encoding="UTF-8" standalone="no"?>
<!-- Created with Inkscape (http://www.inkscape.org/) -->

<svg
   width="150mm"
   height="150mm"
   viewBox="0 0 150 150"
   version="1.1"
   id="svg5"
   xml:space="preserve"
   xmlns="http://www.w3.org/2000/svg"
   xmlns:svg="http://www.w3.org/2000/svg"><defs
     id="defs2" /><g
     id="layer1"
     transform="translate(-36.126225,-12.56309)"><path
       style="fill:#eed09d;stroke-width:0.21484"
       d="M 114.77113,153.03039 C 107.75876,152.1958 101.761,150.60054 95.346763,147.86396 89.587389,145.40677 70.873715,136.11612 65.465309,133.02892 59.210698,129.45869 54.141944,126.071 50.467907,123.00543 37.590981,112.26109 33.172531,94.058412 38.07778,71.961902 c 3.361372,-15.14189 11.503203,-30.96586 20.628449,-40.09222 5.132367,-5.133 10.254571,-7.83654 17.930768,-9.46404 2.622428,-0.556 10.587249,-0.5553 13.64235,8.2e-4 12.377913,2.25472 24.171123,7.96339 43.290293,20.95528 20.36634,13.83936 21.48046,14.54959 29.88569,19.05142 8.79948,4.713 11.72044,6.68663 15.12891,10.22231 2.9871,3.09858 4.66149,5.86593 6.00439,9.92377 2.19656,6.63729 2.0367,14.16207 -0.46057,21.680888 -1.6421,4.94406 -5.55861,11.86579 -9.43824,16.68043 -6.62469,8.22129 -17.45851,17.33803 -28.8743,24.29795 -6.84389,4.17257 -14.67688,6.95549 -21.74409,7.72532 -1.92702,0.20991 -7.80315,0.26434 -9.3003,0.0862 z m -0.34706,-25.45377 c 0.54537,-0.12944 1.71666,-0.5801 2.60288,-1.00146 1.535,-0.72985 2.10845,-1.26024 12.1098,-11.20071 8.31357,-8.26295 10.60464,-10.65816 11.00846,-11.50879 0.97944,-2.06315 0.50465,-4.287818 -1.23244,-5.774708 -1.09931,-0.94096 -2.39608,-1.3032 -3.96397,-1.10731 l -1.21456,0.15175 0.58739,-0.7701 c 1.67123,-2.19109 1.5576,-4.74959 -0.29324,-6.60273 -1.1937,-1.19519 -2.35051,-1.58061 -4.17612,-1.3914 -1.35104,0.14003 -1.34223,0.15996 -0.4632,-1.04819 1.40134,-1.92602 1.20187,-4.44188 -0.48957,-6.17487 -1.0962,-1.12314 -2.29261,-1.53822 -4.03138,-1.39865 -0.76778,0.0616 -1.39597,0.0501 -1.39597,-0.0256 0,-0.0757 3.24866,-3.37576 7.21924,-7.33353 7.62308,-7.5985 8.24259,-8.3631 8.24716,-10.17878 0.008,-3.29256 -2.86712,-5.59652 -6.06134,-4.85674 -1.12296,0.26008 -1.29516,0.42373 -18.15887,17.25699 -14.62969,14.60328 -17.065719,16.95004 -17.313428,16.67891 -0.158547,-0.17353 -1.093366,-1.71733 -2.077377,-3.43069 -4.275302,-7.44412 -5.935941,-9.32201 -9.984277,-11.29046 -1.302662,-0.6334 -3.135938,-1.34918 -4.07395,-1.59063 -1.844703,-0.47483 -4.652232,-0.58415 -5.61375,-0.21858 -0.753234,0.28638 -3.745044,3.1872 -3.745044,3.63114 0,0.18782 2.126509,2.46636 4.725577,5.06341 l 4.725579,4.72191 3.764071,11.29225 3.76407,11.292248 7.462235,7.42221 c 5.311194,5.2827 7.802844,7.61211 8.643854,8.08105 2.90329,1.61881 6.20164,2.0778 9.42817,1.31201 z M 93.593777,63.446732 c 0.948762,-1.20615 0.761202,-1.53307 -3.153299,-5.4963 -3.576664,-3.62117 -4.347325,-4.24995 -5.208969,-4.24995 -0.698295,0 -1.504787,0.94125 -1.504787,1.75622 0,0.62336 0.437701,1.13925 3.927279,4.62883 3.657507,3.65751 3.981107,3.92728 4.71089,3.92728 0.590661,0 0.893254,-0.13939 1.228886,-0.56608 z m 20.472253,-3.03249 c 2.00385,-1.97922 3.7819,-3.8636 3.95122,-4.18753 0.39017,-0.74644 0.19727,-1.5465 -0.50632,-2.09995 -1.10027,-0.86547 -1.3621,-0.70192 -5.55762,3.4714 -2.15512,2.14372 -3.97583,4.12645 -4.04601,4.40607 -0.13758,0.54819 0.34423,1.6854 0.79007,1.86479 0.15019,0.0604 0.59982,0.1175 0.99919,0.12682 0.659,0.0154 1.06285,-0.31563 4.36947,-3.5816 z m -11.93061,1.41272 c 0.49627,-0.46622 0.49724,-0.4786 0.49724,-6.34755 v -5.88042 l -0.52734,-0.52734 c -0.93028,-0.93028 -2.484724,-0.47422 -2.810717,0.82464 -0.06636,0.2644 -0.0917,2.97738 -0.05631,6.02887 0.0642,5.53602 0.06545,5.54904 0.571533,5.95854 0.678534,0.54902 1.707504,0.52392 2.325594,-0.0568 z"
       id="path270" /><path
       style="fill:#af6d4c;stroke-width:0.21484"
       d="m 109.41623,127.8204 c -1.57824,-0.28346 -3.09735,-0.81813 -4.42033,-1.55579 -0.84101,-0.46894 -3.33266,-2.79834 -8.643854,-8.08105 l -7.462235,-7.4222 -3.76407,-11.292248 -3.764071,-11.29225 -4.725579,-4.72192 c -2.599068,-2.59705 -4.725577,-4.87559 -4.725577,-5.06341 0,-0.44394 2.99181,-3.34476 3.745044,-3.63114 0.961518,-0.36557 3.769047,-0.25625 5.61375,0.21859 0.938012,0.24144 2.771288,0.95722 4.07395,1.59062 4.048336,1.96845 5.708975,3.84634 9.984277,11.29046 0.984011,1.71336 1.91883,3.25717 2.077377,3.4307 0.247709,0.27112 2.683738,-2.07564 17.313428,-16.67892 16.86371,-16.83326 17.03591,-16.99691 18.15887,-17.25699 3.19422,-0.73978 6.06962,1.56418 6.06134,4.85674 -0.005,1.81569 -0.62408,2.58029 -8.24716,10.17878 -3.97058,3.95777 -7.21924,7.25787 -7.21924,7.33354 0,0.0757 0.62819,0.0872 1.39597,0.0256 1.73877,-0.13957 2.93518,0.27551 4.03138,1.39865 1.69144,1.73299 1.89091,4.24886 0.48957,6.17487 -0.87903,1.20815 -0.88784,1.18823 0.4632,1.04819 1.82561,-0.18921 2.98242,0.19621 4.17612,1.3914 1.85084,1.85314 1.96447,4.41164 0.29324,6.60273 l -0.58739,0.7701 1.21456,-0.15175 c 4.03251,-0.50382 6.8999,3.293688 5.19641,6.882018 -0.40382,0.85064 -2.69489,3.24584 -11.00846,11.50879 -10.00135,9.94047 -10.5748,10.47086 -12.1098,11.20071 -0.88622,0.42136 -2.05751,0.87202 -2.60288,1.00146 -1.46024,0.34658 -3.80101,0.46053 -5.00784,0.24378 z M 87.654001,60.085532 c -3.489578,-3.48958 -3.927279,-4.00547 -3.927279,-4.62883 0,-0.81497 0.806492,-1.75622 1.504787,-1.75622 0.861644,0 1.632305,0.62878 5.208969,4.24995 3.04283,3.08071 3.598573,3.74274 3.598573,4.2868 0,0.99783 -0.733321,1.77558 -1.67416,1.77558 -0.729783,0 -1.053383,-0.26977 -4.71089,-3.92728 z m 21.043369,3.78349 c -0.44584,-0.17939 -0.92765,-1.3166 -0.79007,-1.86479 0.0702,-0.27962 1.89089,-2.26235 4.04601,-4.40607 4.19552,-4.17332 4.45735,-4.33687 5.55762,-3.4714 0.70359,0.55345 0.89649,1.35351 0.50632,2.09995 -0.16932,0.32393 -1.94737,2.20831 -3.95122,4.18753 -3.30662,3.26597 -3.71047,3.597 -4.36947,3.5816 -0.39937,-0.009 -0.849,-0.0664 -0.99919,-0.12682 z m -8.887545,-1.98532 c -0.506082,-0.4095 -0.507331,-0.42252 -0.571533,-5.95854 -0.03539,-3.05149 -0.01005,-5.76447 0.05631,-6.02887 0.325993,-1.29886 1.880438,-1.75492 2.810718,-0.82464 l 0.52734,0.52734 v 5.88042 c 0,5.86895 -0.001,5.88133 -0.49724,6.34755 -0.61809,0.58066 -1.64706,0.60576 -2.325596,0.0568 z"
       id="path268" /></g></svg>
