<?xml version="1.0" encoding="UTF-8" standalone="no"?>
<!-- Created with Inkscape (http://www.inkscape.org/) -->

<svg
   width="150mm"
   height="150mm"
   viewBox="0 0 150 150"
   version="1.1"
   id="svg5"
   xml:space="preserve"
   xmlns="http://www.w3.org/2000/svg"
   xmlns:svg="http://www.w3.org/2000/svg"><defs
     id="defs2" /><g
     id="layer1"
     transform="translate(-36.126225,-12.56309)"><path
       style="fill:#eed09d;stroke-width:0.263133"
       d="m 135.46213,161.8794 c -4.39454,-0.95464 -8.04622,-2.17847 -13.79199,-4.62227 -7.23043,-3.07526 -10.42129,-4.32906 -12.51653,-4.91816 -8.57741,-2.41164 -17.380948,-1.68526 -30.887693,2.54857 -6.440983,2.01899 -8.537233,2.48324 -12.915715,2.86043 -7.737612,0.66656 -13.325578,-0.83625 -18.401707,-4.94889 -2.85929,-2.31657 -5.119107,-5.19792 -7.078171,-9.0249 -3.160473,-6.17393 -3.924147,-9.49968 -3.710824,-16.16026 0.276294,-8.62655 2.029721,-13.08403 11.028259,-28.035531 6.40984,-10.650252 8.46635,-14.963952 9.581771,-20.098544 0.997684,-4.592615 0.819041,-7.662486 -1.222128,-21.002236 -1.971288,-12.882971 -1.1931,-19.515704 3.147329,-26.825841 3.792634,-6.387534 9.723291,-11.511458 16.915549,-14.614557 2.778749,-1.198892 8.831517,-3.172031 11.579868,-3.774915 3.080034,-0.675643 9.766393,-0.910778 13.836282,-0.486571 5.39838,0.562677 6.51058,0.964243 17.55587,6.338657 5.56301,2.706853 9.31287,4.034734 14.01106,4.961524 2.03498,0.401432 3.88828,0.529567 8.54783,0.590989 6.04795,0.07973 9.79068,0.396775 12.71027,1.076704 8.70136,2.026419 15.46253,6.122408 18.01821,10.915624 2.83575,5.31847 3.00502,9.8783 0.61021,16.438113 -2.77016,7.587969 -3.35082,10.071285 -3.3441,14.301727 0.009,5.750058 1.16339,11.403366 3.56437,17.457459 0.89355,2.25309 3.54835,7.840993 5.89956,12.417577 5.86652,11.419051 7.11769,15.072841 7.47523,21.829851 0.27517,5.20061 -0.54948,9.35079 -2.65298,13.35156 -2.03605,3.87246 -3.8194,5.85173 -13.75028,15.26092 -8.42186,7.97946 -10.49208,9.64233 -14.63385,11.75441 -5.85493,2.98569 -12.91834,3.85476 -19.5757,2.40856 z m -7.16526,-34.84155 c 0.78192,-0.67059 1.05238,-1.56684 5.68332,-18.83297 2.67429,-9.97088 4.86233,-18.534426 4.86233,-19.030101 0,-1.364333 -1.05614,-2.211432 -3.44946,-2.766716 -1.59048,-0.369015 -1.95917,-0.547669 -1.95917,-0.949363 0,-0.27215 0.57031,-2.592833 1.26735,-5.157072 1.17761,-4.332191 1.26752,-4.88884 1.26992,-7.862669 0.003,-3.707128 -0.3998,-5.443705 -1.98935,-8.577079 -2.8493,-5.616651 -7.68966,-9.281177 -14.24196,-10.782264 -2.52693,-0.578902 -3.31545,-0.653076 -5.64179,-0.530708 -4.47405,0.235334 -8.37288,1.579127 -11.93318,4.112956 -2.04241,1.453551 -3.314281,2.769485 -4.815678,4.982461 -1.576562,2.32379 -2.353605,4.289596 -3.682032,9.315069 -0.622164,2.353661 -1.269196,4.446301 -1.437842,4.650326 -0.266003,0.321793 -0.583365,0.30391 -2.395267,-0.135001 -1.966913,-0.476457 -2.143461,-0.481305 -3.029409,-0.08332 -0.688498,0.309319 -1.050445,0.708178 -1.349747,1.487432 -0.552907,1.439532 -9.893297,36.367139 -9.893297,36.995189 0,1.44847 -0.517102,1.29591 26.255752,7.74629 13.89377,3.34743 25.35075,6.09419 25.45996,6.10391 0.1092,0.01 0.568,-0.29917 1.01955,-0.68641 z M 103.1248,111.63159 c -1.00838,-0.95467 -1.00415,-1.40474 0.0519,-5.52438 l 0.85324,-3.32842 -0.89853,-1.35983 c -0.76994,-1.16522 -0.89853,-1.58999 -0.89853,-2.967977 0,-2.164919 0.92017,-3.687507 2.88565,-4.774813 1.25035,-0.691689 1.60699,-0.769403 3.19513,-0.696256 1.39586,0.06435 2.02979,0.234024 2.89219,0.774348 3.38105,2.118341 3.52556,6.926778 0.27519,9.155968 -0.61324,0.42057 -1.28185,0.76467 -1.48584,0.76467 -0.49318,0 -0.75817,0.64424 -1.57966,3.84049 -0.90677,3.52802 -1.14475,4.04971 -2.04944,4.49263 -1.22654,0.60049 -2.34688,0.47039 -3.24131,-0.37643 z m 9.2323,-30.726148 c -7.94818,-1.928395 -14.495222,-3.631155 -14.549005,-3.783894 -0.212761,-0.604307 2.656955,-10.158196 3.510585,-11.687443 0.49264,-0.882569 1.7186,-2.373294 2.79484,-3.398439 2.42002,-2.30513 5.01811,-3.56155 8.52115,-4.120758 2.14671,-0.342691 2.67473,-0.342428 4.8348,0.0023 7.6139,1.215446 13.01882,7.173612 13.0571,14.393647 0.0102,1.93331 -0.19349,3.065671 -1.26557,7.03355 -0.70279,2.601088 -1.33636,4.818974 -1.40794,4.928622 -0.0716,0.109648 -0.33592,0.185659 -0.58743,0.168928 -0.25152,-0.01674 -6.96036,-1.608208 -14.90853,-3.536613 z"
       id="path129" /><path
       style="fill:#af6d4c;stroke-width:0.263133"
       d="m 101.81736,121.62035 c -26.772854,-6.45039 -26.255752,-6.29782 -26.255752,-7.74629 0,-0.62805 9.34039,-35.555655 9.893297,-36.995187 0.299302,-0.779254 0.661249,-1.178113 1.349747,-1.487432 0.885948,-0.398027 1.062496,-0.393179 3.029409,0.08332 1.811902,0.438911 2.129264,0.456794 2.395267,0.135001 0.168646,-0.204026 0.815678,-2.296665 1.437842,-4.650326 1.328427,-5.025474 2.10547,-6.991279 3.682032,-9.315069 1.501397,-2.212976 2.773268,-3.52891 4.815678,-4.982462 3.5603,-2.533828 7.45913,-3.877621 11.93318,-4.112956 2.32634,-0.122368 3.11486,-0.04819 5.64179,0.530709 6.5523,1.501087 11.39266,5.165612 14.24196,10.782263 1.58955,3.133375 1.99232,4.869952 1.98935,8.57708 -0.002,2.973828 -0.0923,3.530477 -1.26992,7.862669 -0.69704,2.564238 -1.26735,4.884921 -1.26735,5.157072 0,0.401694 0.36869,0.580347 1.95917,0.949363 2.39332,0.555284 3.44946,1.402382 3.44946,2.766716 0,0.495675 -2.18804,9.05922 -4.86233,19.030099 -4.63094,17.26612 -4.9014,18.16238 -5.68332,18.83297 -0.45155,0.38724 -0.91035,0.69613 -1.01955,0.68641 -0.10921,-0.01 -11.56619,-2.75648 -25.45996,-6.10391 z m 4.54875,-9.61233 c 0.90469,-0.44292 1.14267,-0.96461 2.04944,-4.49263 0.82149,-3.19625 1.08648,-3.84049 1.57966,-3.84049 0.72129,0 2.6088,-1.54382 3.20438,-2.6209 0.90607,-1.638578 0.85333,-3.797474 -0.13158,-5.385839 -1.10043,-1.774698 -2.53533,-2.586031 -4.75434,-2.688247 -1.58814,-0.07316 -1.94478,0.0048 -3.19513,0.696256 -1.96548,1.087306 -2.88565,2.609894 -2.88565,4.774813 0,1.377987 0.12859,1.802757 0.89853,2.967977 l 0.89853,1.35983 -0.85324,3.32842 c -1.05606,4.11964 -1.06029,4.56971 -0.0519,5.52438 0.89443,0.84682 2.01477,0.97692 3.24131,0.37643 z m 21.48695,-27.734903 c 0.0716,-0.109648 0.70515,-2.327525 1.40794,-4.928622 1.07208,-3.967879 1.27584,-5.10024 1.26557,-7.033551 -0.0383,-7.220027 -5.4432,-13.178192 -13.0571,-14.393639 -2.16007,-0.344825 -2.68809,-0.345088 -4.8348,-0.0023 -3.50304,0.559208 -6.10113,1.815627 -8.52115,4.120758 -1.07624,1.025145 -2.3022,2.51587 -2.79484,3.398438 -0.85363,1.529248 -3.723346,11.08314 -3.510585,11.687438 0.08504,0.241688 28.245565,7.23986 29.457535,7.320506 0.25151,0.01674 0.51585,-0.05932 0.58743,-0.168928 z"
       id="path127" /></g></svg>
