<?xml version="1.0" encoding="UTF-8" standalone="no"?>
<!-- Generator: Adobe Illustrator 27.1.1, SVG Export Plug-In . SVG Version: 6.00 Build 0)  -->

<svg
   xmlns:dc="http://purl.org/dc/elements/1.1/"
   xmlns:cc="http://creativecommons.org/ns#"
   xmlns:rdf="http://www.w3.org/1999/02/22-rdf-syntax-ns#"
   xmlns:svg="http://www.w3.org/2000/svg"
   xmlns="http://www.w3.org/2000/svg"
   xmlns:sodipodi="http://sodipodi.sourceforge.net/DTD/sodipodi-0.dtd"
   xmlns:inkscape="http://www.inkscape.org/namespaces/inkscape"
   version="1.1"
   id="Layer_1"
   x="0px"
   y="0px"
   viewBox="0 0 1175.89 1127.3"
   xml:space="preserve"
   inkscape:version="0.91 r13725"
   sodipodi:docname="favicon.svg"
   width="1175.89"
   height="1127.3"><metadata
     id="metadata27"><rdf:RDF><cc:Work
         rdf:about=""><dc:format>image/svg+xml</dc:format><dc:type
           rdf:resource="http://purl.org/dc/dcmitype/StillImage" /><dc:title></dc:title></cc:Work></rdf:RDF></metadata><defs
     id="defs25" /><sodipodi:namedview
     pagecolor="#ffffff"
     bordercolor="#666666"
     borderopacity="1"
     objecttolerance="10"
     gridtolerance="10"
     guidetolerance="10"
     inkscape:pageopacity="0"
     inkscape:pageshadow="2"
     inkscape:window-width="1554"
     inkscape:window-height="752"
     id="namedview23"
     showgrid="false"
     fit-margin-top="0"
     fit-margin-left="0"
     fit-margin-right="0"
     fit-margin-bottom="0"
     inkscape:zoom="0.118"
     inkscape:cx="660.65"
     inkscape:cy="563.64995"
     inkscape:window-x="2541"
     inkscape:window-y="436"
     inkscape:window-maximized="0"
     inkscape:current-layer="Layer_1" /><style
     type="text/css"
     id="style3">
	.st0{fill-rule:evenodd;clip-rule:evenodd;fill:#E8A067;stroke:#E8A067;stroke-width:17;stroke-miterlimit:10;}
	.st1{fill:#E8A067;}
	.st2{fill:#B06E4D;}
	.st3{fill-rule:evenodd;clip-rule:evenodd;fill:#B06E4D;}
</style><path
     class="st0"
     d="M 778.65,592.74"
     id="path5"
     inkscape:connector-curvature="0"
     style="clip-rule:evenodd;fill:#e8a067;fill-rule:evenodd;stroke:#e8a067;stroke-width:17;stroke-miterlimit:10" /><path
     class="st1"
     d="m 106.95,563.02 c 0,-264.18 204.35,-456.07 481,-456.07 117.01,0 221.18,34.4 302.31,93.93 34.9,26.2 45.35,82.77 -2.99,109.65 l -42.87,23.81 c -62.55,34.77 -107.53,-10.69 -164.74,-10.69 -63.8,0 -111.03,44.35 -111.03,105.26 0,61.34 47.23,105.68 111.03,105.68 42.87,0 72.16,-23.66 96.95,-51.7 34.77,-39.27 60.94,-42.02 106.56,-42.02 l 87.35,0 c 72.53,0 98.43,56.47 98.43,122.14 0,265.45 -204.35,457.34 -481,457.34 -276.65,0 -481,-191.88 -481,-457.33 z"
     id="path11"
     inkscape:connector-curvature="0"
     style="fill:#e8a067" /><path
     class="st1"
     d="M 587.95,1127.3 C 252.76,1127.3 0,884.71 0,563.02 0,242.04 252.76,0 587.95,0 c 136.94,0 263.36,39.65 365.58,114.66 49.44,37.1 77.08,96.21 73.07,154.94 -1.65,24.12 -8.36,46.84 -19.5,67.21 102.36,16.54 168.79,103.29 168.79,226.21 0,321.7 -252.76,564.28 -587.94,564.28 z m 0,-913.41 c -220.24,0 -374.05,143.57 -374.05,349.13 0,206.3 153.82,350.39 374.05,350.39 220.23,0 374.05,-144.09 374.05,-350.39 0,-6.19 -0.41,-11.24 -0.96,-15.19 l -77.86,0 c -10.07,0 -17.22,0.2 -21.34,0.58 -1.19,1.11 -2.89,2.83 -5.16,5.39 -19.13,21.64 -77.56,87.75 -177.01,87.75 -122.23,0 -217.97,-93.4 -217.97,-212.63 0,-109.99 81.81,-197.96 190.72,-210.63 -20.91,-2.92 -42.44,-4.4 -64.47,-4.4 z m 384.95,334.06 0,0 0,0 z"
     id="path13"
     inkscape:connector-curvature="0"
     style="fill:#e8a067" /><path
     style="fill:#b06e4d"
     inkscape:connector-curvature="0"
     id="path19"
     d="m 106.95,563.02 c 0,-264.18 204.35,-456.07 481,-456.07 117.01,0 221.18,34.4 302.31,93.93 34.9,26.2 45.35,82.77 -2.99,109.65 l -42.87,23.81 c -62.55,34.77 -107.53,-10.69 -164.74,-10.69 -63.8,0 -111.03,44.35 -111.03,105.26 0,61.34 47.23,105.68 111.03,105.68 42.87,0 72.16,-23.66 96.95,-51.7 34.77,-39.27 60.94,-42.02 106.56,-42.02 l 87.35,0 c 72.53,0 98.43,56.47 98.43,122.14 0,265.45 -204.35,457.34 -481,457.34 -276.65,0 -481,-191.88 -481,-457.33 z"
     class="st2" /></svg>