<?xml version="1.0" encoding="UTF-8" standalone="no"?>
<!-- Generator: Adobe Illustrator 27.1.1, SVG Export Plug-In . SVG Version: 6.00 Build 0)  -->

<svg
   xmlns:dc="http://purl.org/dc/elements/1.1/"
   xmlns:cc="http://creativecommons.org/ns#"
   xmlns:rdf="http://www.w3.org/1999/02/22-rdf-syntax-ns#"
   xmlns:svg="http://www.w3.org/2000/svg"
   xmlns="http://www.w3.org/2000/svg"
   xmlns:sodipodi="http://sodipodi.sourceforge.net/DTD/sodipodi-0.dtd"
   xmlns:inkscape="http://www.inkscape.org/namespaces/inkscape"
   version="1.1"
   id="Layer_1"
   x="0px"
   y="0px"
   viewBox="0 0 1815.8101 226.27"
   xml:space="preserve"
   inkscape:version="0.91 r13725"
   sodipodi:docname="logo_caramelz.svg"
   width="1815.8101"
   height="226.27"><metadata
     id="metadata87"><rdf:RDF><cc:Work
         rdf:about=""><dc:format>image/svg+xml</dc:format><dc:type
           rdf:resource="http://purl.org/dc/dcmitype/StillImage" /><dc:title></dc:title></cc:Work></rdf:RDF></metadata><defs
     id="defs85" /><sodipodi:namedview
     pagecolor="#ffffff"
     bordercolor="#666666"
     borderopacity="1"
     objecttolerance="10"
     gridtolerance="10"
     guidetolerance="10"
     inkscape:pageopacity="0"
     inkscape:pageshadow="2"
     inkscape:window-width="732"
     inkscape:window-height="480"
     id="namedview83"
     showgrid="false"
     fit-margin-top="0"
     fit-margin-left="0"
     fit-margin-right="0"
     fit-margin-bottom="0"
     inkscape:zoom="0.118"
     inkscape:cx="907.9"
     inkscape:cy="155.53"
     inkscape:window-x="2566"
     inkscape:window-y="520"
     inkscape:window-maximized="0"
     inkscape:current-layer="Layer_1" /><style
     type="text/css"
     id="style3">
	.st0{fill:#E8A067;}
	.st1{fill-rule:evenodd;clip-rule:evenodd;fill:#E8A067;stroke:#E8A067;stroke-width:17;stroke-miterlimit:10;}
	.st2{fill:#B06E4D;}
	.st3{fill-rule:evenodd;clip-rule:evenodd;fill:#B06E4D;}
</style><g
     id="g5"
     transform="translate(-92.1,-929.26)"><g
       id="g7"><g
         id="g9"><g
           id="g11"><path
             class="st0"
             d="m 113.56,1042.26 c 0,-53.03 41.02,-91.54 96.54,-91.54 23.49,0 44.4,6.9 60.68,18.85 7.01,5.26 9.1,16.61 -0.6,22.01 l -8.6,4.78 c -12.56,6.98 -21.58,-2.15 -33.07,-2.15 -12.8,0 -22.29,8.9 -22.29,21.13 0,12.31 9.48,21.21 22.29,21.21 8.6,0 14.48,-4.75 19.46,-10.38 6.98,-7.88 12.23,-8.43 21.39,-8.43 l 17.53,0 c 14.56,0 19.76,11.33 19.76,24.52 0,53.28 -41.02,91.8 -96.54,91.8 -55.52,0 -96.55,-38.52 -96.55,-91.8 z"
             id="path13"
             inkscape:connector-curvature="0"
             style="fill:#e8a067" /><path
             class="st0"
             d="m 210.11,1155.53 c -67.28,0 -118.01,-48.69 -118.01,-113.26 0,-64.43 50.73,-113.01 118.01,-113.01 27.49,0 52.86,7.96 73.38,23.01 9.92,7.45 15.47,19.31 14.67,31.1 -0.33,4.84 -1.68,9.4 -3.91,13.49 20.55,3.32 33.88,20.73 33.88,45.41 -0.01,64.56 -50.74,113.26 -118.02,113.26 z m 0,-183.34 c -44.21,0 -75.08,28.82 -75.08,70.08 0,41.41 30.87,70.33 75.08,70.33 44.21,0 75.08,-28.92 75.08,-70.33 0,-1.24 -0.08,-2.26 -0.19,-3.05 l -15.63,0 c -2.02,0 -3.46,0.04 -4.28,0.12 -0.24,0.22 -0.58,0.57 -1.04,1.08 -3.84,4.34 -15.57,17.61 -35.53,17.61 -24.53,0 -43.75,-18.75 -43.75,-42.68 0,-22.08 16.42,-39.73 38.28,-42.28 -4.2,-0.59 -8.52,-0.88 -12.94,-0.88 z m 77.27,67.05 0,0 0,0 z"
             id="path15"
             inkscape:connector-curvature="0"
             style="fill:#e8a067" /></g><g
           id="g17"><path
             class="st0"
             d="m 343.95,1099.85 77.08,-135 c 9.48,-16.58 25.39,-16.63 34.89,0 l 77.06,135 c 10.1,17.68 3.87,30.21 -16.51,30.21 l -156.02,0 c -20.38,0 -26.61,-12.51 -16.5,-30.21 z"
             id="path19"
             inkscape:connector-curvature="0"
             style="fill:#e8a067" /><path
             class="st0"
             d="m 516.48,1151.52 -156.03,0 c -23.61,0 -33.96,-11.75 -38.03,-18.75 -4.14,-7.13 -9.27,-22.28 2.88,-43.57 l 0,0 77.08,-135 c 8.46,-14.8 21.61,-23.28 36.09,-23.28 0,0 0,0 0,0 14.48,0 27.62,8.48 36.08,23.27 l 77.07,135.01 c 12.15,21.26 7.02,36.41 2.88,43.55 -4.06,7.01 -14.41,18.77 -38.02,18.77 z m -152.81,-42.93 149.59,0 -74.79,-131.01 -74.8,131.01 z m 77.79,-135.49 0,0 0,0 z"
             id="path21"
             inkscape:connector-curvature="0"
             style="fill:#e8a067" /></g><g
           id="g23"><path
             class="st0"
             d="m 587.88,1105.04 0,-125.05 c 0,-16.26 8.75,-25.02 25.01,-25.02 l 56.7,0 c 65.43,0 88.62,27.66 88.62,68.06 0,23.76 -11.56,41.25 -27.62,51.4 l 27.29,30.61 c 10.53,11.81 8.03,25.02 -9.28,25.02 l -135.71,0 c -16.25,0 -25.01,-8.76 -25.01,-25.02 z m 124.26,-89.66 c 0,-12.24 -9.48,-21.14 -22.31,-21.14 -12.8,0 -22.29,8.9 -22.29,21.14 0,12.3 9.48,21.21 22.29,21.21 12.83,0 22.31,-8.91 22.31,-21.21 z"
             id="path25"
             inkscape:connector-curvature="0"
             style="fill:#e8a067" /><path
             class="st0"
             d="m 748.61,1151.52 -135.72,0 c -28.23,0 -46.48,-18.25 -46.48,-46.48 l 0,-125.05 c 0,-28.24 18.24,-46.48 46.48,-46.48 l 56.7,0 c 36.83,0 63.91,7.86 82.81,24.04 18.1,15.5 27.28,37.53 27.28,65.48 0,20.26 -6.65,38.71 -18.77,53.15 l 13,14.58 c 11.41,12.79 14.75,28.16 8.95,41.11 -5.52,12.31 -18.32,19.65 -34.25,19.65 z m -5.59,-30.61 0,0 0,0 z m -133.37,-12.62 c 0.6,0.14 1.64,0.3 3.24,0.3 l 119.4,0 -34.56,-38.78 21.4,-13.53 c 8.04,-5.08 17.62,-14.98 17.62,-33.26 0,-7.94 0,-20.38 -9.71,-30.41 4.18,6.55 6.57,14.33 6.57,22.76 0,23.93 -19.23,42.68 -43.78,42.68 -24.53,0 -43.75,-18.75 -43.75,-42.68 0,-17.57 10.4,-32.35 25.67,-38.93 -0.71,-0.01 -1.43,-0.01 -2.15,-0.01 l -56.7,0 c -1.61,0 -2.64,0.16 -3.24,0.3 -0.14,0.6 -0.3,1.64 -0.3,3.25 l 0,125.06 c -0.01,1.61 0.15,2.65 0.29,3.25 z"
             id="path27"
             inkscape:connector-curvature="0"
             style="fill:#e8a067" /></g><g
           id="g29"><path
             class="st0"
             d="m 811.52,1099.85 77.08,-135 c 9.48,-16.58 25.39,-16.63 34.89,0 l 77.06,135 c 10.1,17.68 3.87,30.21 -16.51,30.21 l -156.02,0 c -20.38,0 -26.61,-12.51 -16.5,-30.21 z m 101.6,-24.82 c 0,-12.24 -9.48,-21.14 -22.31,-21.14 -12.8,0 -22.29,8.9 -22.29,21.14 0,12.3 9.48,21.2 22.29,21.2 12.83,0 22.31,-8.9 22.31,-21.2 z"
             id="path31"
             inkscape:connector-curvature="0"
             style="fill:#e8a067" /><path
             class="st0"
             d="m 984.05,1151.52 -156.02,0 c -23.61,0 -33.96,-11.75 -38.03,-18.75 -4.14,-7.13 -9.27,-22.28 2.88,-43.57 l 0,0 77.08,-135 c 8.46,-14.8 21.61,-23.28 36.09,-23.28 0,0 0,0 0,0 14.48,0 27.62,8.48 36.08,23.27 l 77.07,135.01 c 12.15,21.26 7.02,36.41 2.88,43.55 -4.07,7.01 -14.42,18.77 -38.03,18.77 z m -65.9,-42.93 62.69,0 -74.79,-131.01 -33.44,58.57 c 5.51,-2.4 11.67,-3.72 18.2,-3.72 24.55,0 43.78,18.71 43.78,42.6 -0.01,13.76 -6.36,25.81 -16.44,33.56 z m -86.91,0 32.24,0 c -8.75,-6.74 -14.7,-16.72 -16.1,-28.25 l -16.14,28.25 z m 77.79,-135.49 0,0 0,0 z"
             id="path33"
             inkscape:connector-curvature="0"
             style="fill:#e8a067" /></g><g
           id="g35"><path
             class="st0"
             d="m 1055.46,1105.04 0,-130.18 c 0,-20.03 21.26,-28.84 37.52,-17.1 l 61.53,44.41 61.53,-44.41 c 16.26,-11.74 37.52,-2.93 37.52,17.1 l 0,130.19 c 0,16.26 -8.75,25.02 -25.01,25.02 l -150.35,0 c -14.79,-0.01 -22.74,-8.77 -22.74,-25.03 z m 89.33,-40.51 c 0,-12.74 -5.77,-22.01 -13.58,-22.01 -7.79,0 -13.56,9.27 -13.56,22.01 0,12.81 5.77,22.08 13.56,22.08 7.81,0 13.58,-9.27 13.58,-22.08 z m 46.56,0 c 0,-12.74 -5.77,-22.01 -13.57,-22.01 -7.79,0 -13.56,9.27 -13.56,22.01 0,12.81 5.77,22.08 13.56,22.08 7.81,0 13.57,-9.27 13.57,-22.08 z"
             id="path37"
             inkscape:connector-curvature="0"
             style="fill:#e8a067" /><path
             class="st0"
             d="m 1228.54,1151.52 -150.35,0 c -26.85,0 -44.2,-18.25 -44.2,-46.48 l 0,-130.19 c 0,-17.01 8.69,-31.6 23.23,-39.04 15.18,-7.76 33.69,-6.03 48.32,4.54 l 48.96,35.34 48.97,-35.34 c 14.62,-10.56 33.13,-12.3 48.31,-4.54 14.55,7.44 23.23,22.03 23.23,39.04 l 0,130.19 c 0,28.24 -18.24,46.48 -46.47,46.48 z m -151.33,-42.96 c 0.27,0.02 0.6,0.03 0.99,0.03 l 150.35,0 c 1.61,0 2.64,-0.16 3.24,-0.3 0.14,-0.6 0.3,-1.64 0.3,-3.25 l 0,-130.19 c 0,-0.4 -0.04,-0.69 -0.07,-0.88 -0.52,-0.09 -1.75,-0.01 -3.41,1.19 l -74.09,53.48 -74.09,-53.48 c -1.67,-1.2 -2.9,-1.27 -3.42,-1.19 -0.04,0.19 -0.07,0.48 -0.07,0.88 l 0,130.19 c -0.02,1.64 0.12,2.77 0.27,3.52 z m 100.57,-0.49 c -9.18,0 -17.22,-3.75 -23.28,-10.19 -6.06,6.44 -14.1,10.19 -23.29,10.19 -20.3,0 -35.03,-18.31 -35.03,-43.55 0,-25.19 14.73,-43.48 35.03,-43.48 9.18,0 17.23,3.74 23.29,10.17 6.06,-6.43 14.1,-10.17 23.28,-10.17 20.3,0 35.04,18.29 35.04,43.48 0,25.24 -14.74,43.55 -35.04,43.55 z"
             id="path39"
             inkscape:connector-curvature="0"
             style="fill:#e8a067" /></g><g
           id="g41"><path
             class="st0"
             d="m 1316.14,1105.04 0,-125.05 c 0,-16.26 8.75,-25.02 25.01,-25.02 l 101.05,0 c 16.25,0 25,8.75 25,25.02 l 0,8.25 c 0,16.25 -8.75,25.02 -25,25.02 l -6.76,0 0,7.75 c 0,16.25 -8.75,25 -25.02,25 l -11.5,0 0,12.88 43.27,0 c 16.25,0 25,8.75 25,25.02 l 0,21.13 c 0,16.26 -8.75,25.02 -25,25.02 l -101.05,0 c -16.25,0 -25,-8.76 -25,-25.02 z"
             id="path43"
             inkscape:connector-curvature="0"
             style="fill:#e8a067" /><path
             class="st0"
             d="m 1442.2,1151.52 -101.05,0 c -28.23,0 -46.48,-18.25 -46.48,-46.48 l 0,-125.05 c 0,-28.24 18.24,-46.48 46.48,-46.48 l 101.05,0 c 28.23,0 46.47,18.25 46.47,46.48 l 0,8.25 c 0,23.44 -12.58,40 -33,44.95 -0.4,1.88 -0.9,3.7 -1.5,5.45 21.31,4.49 34.5,21.27 34.5,45.28 l 0,21.13 c 0,28.23 -18.24,46.47 -46.47,46.47 z m -104.29,-43.23 c 0.6,0.14 1.64,0.3 3.24,0.3 l 101.05,0 c 1.6,0 2.64,-0.16 3.24,-0.3 0.14,-0.6 0.3,-1.64 0.3,-3.25 l 0,-21.13 c 0,-1.61 -0.16,-2.65 -0.3,-3.25 -0.6,-0.14 -1.64,-0.3 -3.24,-0.3 l -64.74,0 0,-55.82 32.97,0 c 1.61,0 2.65,-0.16 3.25,-0.3 0.14,-0.6 0.3,-1.63 0.3,-3.24 l 0,-29.22 28.22,0 c 1.61,0 2.64,-0.16 3.24,-0.3 0.14,-0.6 0.3,-1.64 0.3,-3.25 l 0,-8.25 c 0,-1.61 -0.16,-2.65 -0.3,-3.25 -0.6,-0.14 -1.64,-0.3 -3.24,-0.3 l -101.05,0 c -1.61,0 -2.64,0.16 -3.24,0.3 -0.14,0.6 -0.3,1.64 -0.3,3.25 l 0,125.06 c 0,1.61 0.16,2.65 0.3,3.25 z"
             id="path45"
             inkscape:connector-curvature="0"
             style="fill:#e8a067" /></g><g
           id="g47"><path
             class="st0"
             d="m 1528.04,1105.04 0,-125.05 c 0,-16.26 8.75,-25.02 25,-25.02 l 32.77,0 c 16.25,0 25.02,8.75 25.02,25.02 l 0,33.27 34.01,0 c 16.26,0 25.02,8.75 25.02,25 l 0,66.78 c 0,16.26 -8.75,25.02 -25.02,25.02 l -91.8,0 c -16.25,0 -25,-8.76 -25,-25.02 z"
             id="path49"
             inkscape:connector-curvature="0"
             style="fill:#e8a067" /><path
             class="st0"
             d="m 1644.84,1151.52 -91.8,0 c -28.23,0 -46.47,-18.25 -46.47,-46.48 l 0,-125.05 c 0,-28.24 18.24,-46.48 46.47,-46.48 l 32.77,0 c 28.24,0 46.48,18.25 46.48,46.48 l 0,11.8 12.55,0 c 28.24,0 46.48,18.24 46.48,46.47 l 0,66.78 c 0,28.24 -18.25,46.48 -46.48,46.48 z m -95.04,-43.23 c 0.6,0.14 1.64,0.3 3.24,0.3 l 91.8,0 c 1.61,0 2.65,-0.16 3.25,-0.3 0.14,-0.6 0.3,-1.64 0.3,-3.25 l 0,-66.78 c 0,-1.6 -0.16,-2.64 -0.3,-3.24 -0.6,-0.14 -1.64,-0.3 -3.25,-0.3 l -55.48,0 0,-54.73 c 0,-1.61 -0.16,-2.65 -0.3,-3.25 -0.6,-0.14 -1.64,-0.3 -3.25,-0.3 l -32.77,0 c -1.6,0 -2.64,0.16 -3.24,0.3 -0.14,0.6 -0.3,1.64 -0.3,3.25 l 0,125.06 c 0,1.6 0.16,2.64 0.3,3.24 z"
             id="path51"
             inkscape:connector-curvature="0"
             style="fill:#e8a067" /></g><g
           id="g53"><path
             class="st0"
             d="m 1886.44,1057.75 0,47.29 c 0,16.26 -8.75,25.02 -25,25.02 l -117.31,0 c -20.01,0 -27.56,-12.91 -17.19,-29.99 l 40.62,-66.81 -19.5,0 c -16.26,0 -25.02,-8.75 -25.02,-25 l 0,-28.27 c 0,-16.26 8.75,-25.02 25.02,-25.02 l 109.38,0 c 20.01,0 27.56,12.91 17.18,29.99 l -29.04,47.78 15.87,0 c 16.23,0 24.99,8.75 24.99,25.01 z"
             id="path55"
             inkscape:connector-curvature="0"
             style="fill:#e8a067" /><path
             class="st0"
             d="m 1861.43,1151.52 -117.31,0 c -17.61,0 -31.74,-7.16 -38.77,-19.65 -6.98,-12.41 -5.8,-28.07 3.24,-42.95 l 22.35,-36.77 c -18.28,-5.95 -29.37,-21.89 -29.37,-43.91 l 0,-28.27 c 0,-28.24 18.25,-46.48 46.48,-46.48 l 109.38,0 c 17.61,0 31.75,7.16 38.77,19.66 6.98,12.42 5.8,28.07 -3.25,42.95 l -11.43,18.81 c 16.49,6.66 26.39,22.04 26.39,42.83 l 0,47.29 c -0.01,28.25 -18.25,46.49 -46.48,46.49 z m -114.55,-42.93 114.56,0 c 1.6,0 2.64,-0.16 3.24,-0.3 0.14,-0.6 0.3,-1.64 0.3,-3.25 l 0,-47.29 c 0,-1.61 -0.16,-2.65 -0.3,-3.25 -0.6,-0.14 -1.64,-0.3 -3.24,-0.3 l -54.04,0 47.27,-77.76 -106.61,0 c -1.61,0 -2.65,0.16 -3.25,0.3 -0.14,0.6 -0.3,1.64 -0.3,3.25 l 0,28.27 c 0,1.6 0.16,2.64 0.3,3.24 0.6,0.14 1.64,0.3 3.25,0.3 l 57.67,0 -58.85,96.79 z"
             id="path57"
             inkscape:connector-curvature="0"
             style="fill:#e8a067" /></g></g><path
         class="st1"
         d="M 1118,1029.09"
         id="path59"
         inkscape:connector-curvature="0"
         style="clip-rule:evenodd;fill:#e8a067;fill-rule:evenodd;stroke:#e8a067;stroke-width:17;stroke-miterlimit:10" /></g><g
       id="g61"><g
         id="g63"><path
           class="st2"
           d="m 113.56,1042.26 c 0,-53.03 41.02,-91.54 96.54,-91.54 23.49,0 44.4,6.9 60.68,18.85 7.01,5.26 9.1,16.61 -0.6,22.01 l -8.6,4.78 c -12.56,6.98 -21.58,-2.15 -33.07,-2.15 -12.8,0 -22.29,8.9 -22.29,21.13 0,12.31 9.48,21.21 22.29,21.21 8.6,0 14.48,-4.75 19.46,-10.38 6.98,-7.88 12.23,-8.43 21.39,-8.43 l 17.53,0 c 14.56,0 19.76,11.33 19.76,24.52 0,53.28 -41.02,91.8 -96.54,91.8 -55.52,0 -96.55,-38.52 -96.55,-91.8 z"
           id="path65"
           inkscape:connector-curvature="0"
           style="fill:#b06e4d" /><path
           class="st2"
           d="m 343.95,1099.85 77.08,-135 c 9.48,-16.58 25.39,-16.63 34.89,0 l 77.06,135 c 10.1,17.68 3.87,30.21 -16.51,30.21 l -156.02,0 c -20.38,0 -26.61,-12.51 -16.5,-30.21 z m 101.6,-24.82 c 0,-12.24 -9.48,-21.14 -22.31,-21.14 -12.8,0 -22.29,8.9 -22.29,21.14 0,12.3 9.48,21.2 22.29,21.2 12.83,0 22.31,-8.9 22.31,-21.2 z"
           id="path67"
           inkscape:connector-curvature="0"
           style="fill:#b06e4d" /><path
           class="st2"
           d="m 587.88,1105.04 0,-125.05 c 0,-16.26 8.75,-25.02 25.01,-25.02 l 56.7,0 c 65.43,0 88.62,27.66 88.62,68.06 0,23.76 -11.56,41.25 -27.62,51.4 l 27.29,30.61 c 10.53,11.81 8.03,25.02 -9.28,25.02 l -135.71,0 c -16.25,0 -25.01,-8.76 -25.01,-25.02 z m 124.26,-89.66 c 0,-12.24 -9.48,-21.14 -22.31,-21.14 -12.8,0 -22.29,8.9 -22.29,21.14 0,12.3 9.48,21.21 22.29,21.21 12.83,0 22.31,-8.91 22.31,-21.21 z"
           id="path69"
           inkscape:connector-curvature="0"
           style="fill:#b06e4d" /><path
           class="st2"
           d="m 811.52,1099.85 77.08,-135 c 9.48,-16.58 25.39,-16.63 34.89,0 l 77.06,135 c 10.1,17.68 3.87,30.21 -16.51,30.21 l -156.02,0 c -20.38,0 -26.61,-12.51 -16.5,-30.21 z m 101.6,-24.82 c 0,-12.24 -9.48,-21.14 -22.31,-21.14 -12.8,0 -22.29,8.9 -22.29,21.14 0,12.3 9.48,21.2 22.29,21.2 12.83,0 22.31,-8.9 22.31,-21.2 z"
           id="path71"
           inkscape:connector-curvature="0"
           style="fill:#b06e4d" /><path
           class="st2"
           d="m 1055.46,1105.04 0,-130.18 c 0,-20.03 21.26,-28.84 37.52,-17.1 l 61.53,44.41 61.53,-44.41 c 16.26,-11.74 37.52,-2.93 37.52,17.1 l 0,130.19 c 0,16.26 -8.75,25.02 -25.01,25.02 l -150.35,0 c -14.79,-0.01 -22.74,-8.77 -22.74,-25.03 z m 89.33,-40.51 c 0,-12.74 -5.77,-22.01 -13.58,-22.01 -7.79,0 -13.56,9.27 -13.56,22.01 0,12.81 5.77,22.08 13.56,22.08 7.81,0 13.58,-9.27 13.58,-22.08 z m 46.56,0 c 0,-12.74 -5.77,-22.01 -13.57,-22.01 -7.79,0 -13.56,9.27 -13.56,22.01 0,12.81 5.77,22.08 13.56,22.08 7.81,0 13.57,-9.27 13.57,-22.08 z"
           id="path73"
           inkscape:connector-curvature="0"
           style="fill:#b06e4d" /><path
           class="st2"
           d="m 1316.14,1105.04 0,-125.05 c 0,-16.26 8.75,-25.02 25.01,-25.02 l 101.05,0 c 16.25,0 25,8.75 25,25.02 l 0,8.25 c 0,16.25 -8.75,25.02 -25,25.02 l -6.76,0 0,7.75 c 0,16.25 -8.75,25 -25.02,25 l -11.5,0 0,12.88 43.27,0 c 16.25,0 25,8.75 25,25.02 l 0,21.13 c 0,16.26 -8.75,25.02 -25,25.02 l -101.05,0 c -16.25,0 -25,-8.76 -25,-25.02 z"
           id="path75"
           inkscape:connector-curvature="0"
           style="fill:#b06e4d" /><path
           class="st2"
           d="m 1528.04,1105.04 0,-125.05 c 0,-16.26 8.75,-25.02 25,-25.02 l 32.77,0 c 16.25,0 25.02,8.75 25.02,25.02 l 0,33.27 34.01,0 c 16.26,0 25.02,8.75 25.02,25 l 0,66.78 c 0,16.26 -8.75,25.02 -25.02,25.02 l -91.8,0 c -16.25,0 -25,-8.76 -25,-25.02 z"
           id="path77"
           inkscape:connector-curvature="0"
           style="fill:#b06e4d" /><path
           class="st2"
           d="m 1886.44,1057.75 0,47.29 c 0,16.26 -8.75,25.02 -25,25.02 l -117.31,0 c -20.01,0 -27.56,-12.91 -17.19,-29.99 l 40.62,-66.81 -19.5,0 c -16.26,0 -25.02,-8.75 -25.02,-25 l 0,-28.27 c 0,-16.26 8.75,-25.02 25.02,-25.02 l 109.38,0 c 20.01,0 27.56,12.91 17.18,29.99 l -29.04,47.78 15.87,0 c 16.23,0 24.99,8.75 24.99,25.01 z"
           id="path79"
           inkscape:connector-curvature="0"
           style="fill:#b06e4d" /></g><path
         class="st3"
         d="M 1118,1029.09"
         id="path81"
         inkscape:connector-curvature="0"
         style="clip-rule:evenodd;fill:#b06e4d;fill-rule:evenodd" /></g></g></svg>